# xmcd
#
# Track frame offsets:
# 150
# 19438
# 36097
# 54534
# 65070
# 78527
# 93293
# 113903
# 121917
# 137995
# 158051
# 169425
# 187706
# 203646
# 220952
#
# Disc length: 3492 seconds
#
#
# Revision: 0
# Processed by: cddbd v1.5.1PL0 Copyright (c) Steve Scherf et al.
# Submitted via: FreeRIP 2.92 
#
DISCID=d50da20f
DTITLE=Old 97's - Hitchhike To Rhome
DYEAR=1900
DGENRE=Bluegrass
TTITLE0=St. Ignatius
TTITLE1=504
TTITLE2=Drowning in the Days
TTITLE3=Miss Molly
TTITLE4=Dancing with Tears in My Eyes
TTITLE5=Leaf Clover
TTITLE6=Wish the Worst
TTITLE7=Old 97's Theme
TTITLE8=Doreen
TTITLE9=Hands Off
TTITLE10=Mama Tried
TTITLE11=Stoned
TTITLE12=If My Heart Was A Car
TTITLE13=Desparate Times
TTITLE14=Ken's Polka Thing
EXTD=
EXTT0=
EXTT1=
EXTT2=
EXTT3=
EXTT4=
EXTT5=
EXTT6=
EXTT7=
EXTT8=
EXTT9=
EXTT10=
EXTT11=
EXTT12=
EXTT13=
EXTT14=
PLAYORDER=
